# xmcd
#
# Track frame offsets: 
#        150
#        18476
#        48068
#        66525
#        85114
#        107570
#        143257
#        161811
#        182895
#        203443
#        221333
#
# Disc length: 3139 seconds
#
# Revision: 0
# Processed by: cddbd v1.5.2PL0 Copyright (c) Steve Scherf et al.
# Submitted via: ExactAudioCopy v0.99pb3
#
DISCID=8c0c410b
DTITLE=Jim Pearce - Never Open With a Ballad
DYEAR=1900
DGENRE=
TTITLE0=Never Open With a Ballad
TTITLE1=Spectacular Orange Array
TTITLE2=The Things I've Seen
TTITLE3=Cleebo's Samba
TTITLE4=Debbie Marie
TTITLE5=Barely Touching
TTITLE6=More and More and More
TTITLE7=Left Coast
TTITLE8=Not This Not That
TTITLE9=This Daily Mystery
TTITLE10=Clouded Canyon
EXTD=
EXTT0=
EXTT1=
EXTT2=
EXTT3=
EXTT4=
EXTT5=
EXTT6=
EXTT7=
EXTT8=
EXTT9=
EXTT10=
PLAYORDER=
